<?xml version="1.0" encoding="UTF-8"?>
<svg class="social-icon" viewBox="0 0 24 24" fill="#5865F2" xmlns="http://www.w3.org/2000/svg">
  <path d="M20.317 4.37a19.791 19.791 0 00-4.885-1.515.07.07 0 00-.073.035 13.886 13.886 0 00-.607 1.247 18.27 18.27 0 00-5.485 0 12.64 12.64 0 00-.622-1.247.07.07 0 00-.073-.035A19.736 19.736 0 003.683 4.37a.065.065 0 00-.032.025C.533 9.04-.32 13.58.099 18.057a.075.075 0 00.028.051 19.9 19.9 0 005.993 3.03.07.07 0 00.076-.025 14.1 14.1 0 001.226-1.994.07.07 0 00-.038-.097 13.107 13.107 0 01-1.885-.9.07.07 0 01-.007-.116c.126-.095.252-.194.372-.293a.07.07 0 01.073-.01c3.957 1.806 8.23 1.806 12.153 0a.07.07 0 01.073.009c.12.1.246.198.373.294a.07.07 0 01-.006.116c-.6.35-1.22.65-1.886.9a.07.07 0 00-.037.097c.36.69.78 1.354 1.226 1.994a.07.07 0 00.076.025 19.876 19.876 0 005.992-3.03.075.075 0 00.028-.05c.5-5.177-.838-9.682-3.65-13.663a.061.061 0 00-.031-.025zM8.02 15.33c-1.183 0-2.157-1.085-2.157-2.42 0-1.334.956-2.42 2.157-2.42 1.21 0 2.176 1.095 2.157 2.42 0 1.335-.956 2.42-2.157 2.42zm7.958 0c-1.183 0-2.157-1.085-2.157-2.42 0-1.334.956-2.42 2.157-2.42 1.21 0 2.176 1.095 2.157 2.42 0 1.335-.947 2.42-2.157 2.42z"/>
</svg>
